# xmcd
# Copyright (C) 1995-1998 Ti Kan
#
# Track frame offsets:
#       150
#       16057
#       30907
#       45580
#       60507
#       74252
#       88497
#       117062
#       134987
#       150582
#       164595
#       178200
#       190812
#       202802
#       221527
#       230612
#       249412
#       263192
#       277395
#       295687
#
# Disc length: 4109 seconds
#
# Revision: 0
# Processed by: cddbd v1.5.2PL0 Copyright (c) Steve Scherf et al.
# Submitted via: CD-Transfer v1.0
#
DISCID=28100b14
DTITLE=Sex Pistols - Jones, Cook, Matlock, Rotten
DYEAR=1900
DGENRE=
TTITLE0=Anarchy In The Uk
TTITLE1=God Save The Queen
TTITLE2=Pretty Vacant
TTITLE3=Holidays In The Sun
TTITLE4=I Wanna Be Me
TTITLE5=Did You No Wrong
TTITLE6=No Fun
TTITLE7=Satellite
TTITLE8=Don't Give Me No L'p, Child
TTITLE9=(I'm Not Your) Stepping Stone
TTITLE10=Bodies
TTITLE11=No Feelings
TTITLE12=Liar
TTITLE13=Problems
TTITLE14=Seventeen
TTITLE15=Submission
TTITLE16=New York
TTITLE17=E M I (Unlimited Edition)
TTITLE18=My Way
TTITLE19=Silly Thing
EXTD=
EXTT0=
EXTT1=
EXTT2=
EXTT3=
EXTT4=
EXTT5=
EXTT6=
EXTT7=
EXTT8=
EXTT9=
EXTT10=
EXTT11=
EXTT12=
EXTT13=
EXTT14=
EXTT15=
EXTT16=
EXTT17=
EXTT18=
EXTT19=
PLAYORDER=
